# xmcd
#
# Track frame offsets:
#	180
#	18965
#	36199
#	58111
#	71622
#	90068
#	110146
#	135060
#	157358
#	180905
#	202943
#
# Disc length: 2931 seconds
#
# Revision: 0
# Processed by: cddbd v1.4PL0 Copyright (c) Steve Scherf et al.
# Submitted via: EasyCDDAExtractor 5.0.4.1
#
DISCID=860b710b
DTITLE=신촌블루스 - 신촌 Blues Collection Lights
DYEAR=1900
DGENRE=Blues
TTITLE0=골목길
TTITLE1=밤마다
TTITLE2=비의 Blues
TTITLE3=건널수 없는 강
TTITLE4=거리에 서서
TTITLE5=그대 없는 거리
TTITLE6=세월이 한참 흐른 뒤에야
TTITLE7=환상
TTITLE8=내맘속에 내리는 비
TTITLE9=아쉬움
TTITLE10=갈등
EXTD=
EXTT0=
EXTT1=
EXTT2=
EXTT3=
EXTT4=
EXTT5=
EXTT6=
EXTT7=
EXTT8=
EXTT9=
EXTT10=
PLAYORDER=
